<svg width="18" height="17" viewBox="0 0 18 17" fill="none" xmlns="http://www.w3.org/2000/svg">
  <path fill-rule="evenodd" clip-rule="evenodd" d="M9 15.4062C10.2837 15.408 11.5451 15.0891 12.6562 14.4819V12.2188C12.6562 11.5847 12.3896 10.9767 11.9149 10.5283C11.4402 10.08 10.7963 9.82812 10.125 9.82812H7.875C7.20367 9.82812 6.55984 10.08 6.08514 10.5283C5.61043 10.9767 5.34375 11.5847 5.34375 12.2188V14.4819C6.45487 15.0891 7.71626 15.408 9 15.4062ZM14.3438 12.2188V13.2143C15.3165 12.2308 15.9638 11.0002 16.2061 9.67388C16.4483 8.34756 16.2749 6.98329 15.7072 5.74879C15.1396 4.51428 14.2023 3.46334 13.0107 2.72515C11.8191 1.98695 10.4251 1.59369 9 1.59369C7.57492 1.59369 6.1809 1.98695 4.9893 2.72515C3.79769 3.46334 2.86044 4.51428 2.29275 5.74879C1.72506 6.98329 1.55168 8.34756 1.79392 9.67388C2.03616 11.0002 2.68346 12.2308 3.65625 13.2143V12.2188C3.65624 11.3973 3.92492 10.5959 4.42553 9.92418C4.92614 9.25245 5.63425 8.74317 6.453 8.466C6.02819 8.00452 5.75289 7.43737 5.65995 6.83219C5.56701 6.22702 5.66035 5.60937 5.92883 5.05291C6.19732 4.49646 6.62962 4.02469 7.17416 3.69387C7.71871 3.36305 8.35252 3.18715 9 3.18715C9.64748 3.18715 10.2813 3.36305 10.8258 3.69387C11.3704 4.02469 11.8027 4.49646 12.0712 5.05291C12.3396 5.60937 12.433 6.22702 12.34 6.83219C12.2471 7.43737 11.9718 8.00452 11.547 8.466C12.3658 8.74317 13.0739 9.25245 13.5745 9.92418C14.0751 10.5959 14.3438 11.3973 14.3438 12.2188ZM9 17C11.3869 17 13.6761 16.1045 15.364 14.5104C17.0518 12.9163 18 10.7543 18 8.5C18 6.24566 17.0518 4.08365 15.364 2.48959C13.6761 0.895533 11.3869 0 9 0C6.61305 0 4.32387 0.895533 2.63604 2.48959C0.948212 4.08365 0 6.24566 0 8.5C0 10.7543 0.948212 12.9163 2.63604 14.5104C4.32387 16.1045 6.61305 17 9 17ZM10.6875 6.375C10.6875 6.79769 10.5097 7.20307 10.1932 7.50195C9.87678 7.80084 9.44755 7.96875 9 7.96875C8.55245 7.96875 8.12322 7.80084 7.80676 7.50195C7.49029 7.20307 7.3125 6.79769 7.3125 6.375C7.3125 5.95231 7.49029 5.54693 7.80676 5.24805C8.12322 4.94916 8.55245 4.78125 9 4.78125C9.44755 4.78125 9.87678 4.94916 10.1932 5.24805C10.5097 5.54693 10.6875 5.95231 10.6875 6.375Z" fill="currentColor"/>
</svg>
