<svg width="21" height="11" viewBox="0 0 21 11" fill="none" xmlns="http://www.w3.org/2000/svg">
  <path d="M5.90625 0.15625C3.74063 0.15625 1.96875 1.75937 1.96875 3.71875C1.96875 4.89675 2.60991 5.94531 3.58903 6.59487C1.8585 7.3715 0.65625 8.98175 0.65625 10.8438H1.96875C1.96875 8.87012 3.72487 7.28125 5.90625 7.28125C8.08763 7.28125 9.84375 8.87012 9.84375 10.8438H11.1562C11.1562 8.87012 12.9124 7.28125 15.0938 7.28125C17.2751 7.28125 19.0312 8.87012 19.0312 10.8438H20.3438C20.3438 8.98116 19.1415 7.3715 17.411 6.59487C17.912 6.26455 18.3199 5.83194 18.6014 5.33219C18.8829 4.83245 19.0302 4.27967 19.0312 3.71875C19.0312 1.75937 17.2594 0.15625 15.0938 0.15625C12.9281 0.15625 11.1562 1.75937 11.1562 3.71875C11.1562 4.89675 11.7974 5.94531 12.7765 6.59487C11.8177 7.02139 11.0241 7.70054 10.5 8.54297C9.97595 7.70054 9.18229 7.02139 8.22347 6.59487C8.72452 6.26455 9.13238 5.83194 9.41391 5.33219C9.69545 4.83245 9.84271 4.27967 9.84375 3.71875C9.84375 1.75937 8.07188 0.15625 5.90625 0.15625ZM5.90625 1.34375C7.36509 1.34375 8.53125 2.39884 8.53125 3.71875C8.53125 5.03866 7.36509 6.09375 5.90625 6.09375C4.44741 6.09375 3.28125 5.03866 3.28125 3.71875C3.28125 2.39884 4.44741 1.34375 5.90625 1.34375ZM15.0938 1.34375C16.5526 1.34375 17.7188 2.39884 17.7188 3.71875C17.7188 5.03866 16.5526 6.09375 15.0938 6.09375C13.6349 6.09375 12.4688 5.03866 12.4688 3.71875C12.4688 2.39884 13.6349 1.34375 15.0938 1.34375Z" fill="currentColor"/>
</svg>
