<svg width="19" height="21" viewBox="0 0 19 21" fill="none" xmlns="http://www.w3.org/2000/svg">
  <path d="M9.5 4.8125C10.2349 4.8125 10.9396 5.13516 11.4593 5.70949C11.9789 6.28382 12.2708 7.06277 12.2708 7.875C12.2708 8.68723 11.9789 9.46618 11.4593 10.0405C10.9396 10.6148 10.2349 10.9375 9.5 10.9375C8.76513 10.9375 8.06036 10.6148 7.54073 10.0405C7.02109 9.46618 6.72917 8.68723 6.72917 7.875C6.72917 7.06277 7.02109 6.28382 7.54073 5.70949C8.06036 5.13516 8.76513 4.8125 9.5 4.8125ZM3.95833 7C4.40167 7 4.81333 7.13125 5.16958 7.3675C5.05083 8.61875 5.38333 9.86125 6.06417 10.8325C5.66833 11.6725 4.87667 12.25 3.95833 12.25C3.32844 12.25 2.72435 11.9734 2.27895 11.4812C1.83356 10.9889 1.58333 10.3212 1.58333 9.625C1.58333 8.92881 1.83356 8.26113 2.27895 7.76884C2.72435 7.27656 3.32844 7 3.95833 7ZM15.0417 7C15.6716 7 16.2756 7.27656 16.721 7.76884C17.1664 8.26113 17.4167 8.92881 17.4167 9.625C17.4167 10.3212 17.1664 10.9889 16.721 11.4812C16.2756 11.9734 15.6716 12.25 15.0417 12.25C14.1233 12.25 13.3317 11.6725 12.9358 10.8325C13.6261 9.84762 13.9464 8.60667 13.8304 7.3675C14.1867 7.13125 14.5983 7 15.0417 7ZM4.35417 15.9688C4.35417 14.1575 6.65792 12.6875 9.5 12.6875C12.3421 12.6875 14.6458 14.1575 14.6458 15.9688V17.5H4.35417V15.9688ZM0 17.5V16.1875C0 14.9712 1.49625 13.9475 3.52292 13.65C3.05583 14.245 2.77083 15.0675 2.77083 15.9688V17.5H0ZM19 17.5H16.2292V15.9688C16.2292 15.0675 15.9442 14.245 15.4771 13.65C17.5037 13.9475 19 14.9712 19 16.1875V17.5Z" fill="currentColor"/>
</svg>
