<svg width="23" height="16" viewBox="0 0 23 16" fill="none" xmlns="http://www.w3.org/2000/svg">
  <path d="M11.9792 7.95C12.4424 7.41667 12.7979 6.80833 13.0458 6.125C13.293 5.44167 13.4167 4.73333 13.4167 4C13.4167 3.26667 13.293 2.55833 13.0458 1.875C12.7979 1.19167 12.4424 0.583334 11.9792 0.0500002C12.9375 0.183334 13.7361 0.625 14.375 1.375C15.0139 2.125 15.3333 3 15.3333 4C15.3333 5 15.0139 5.875 14.375 6.625C13.7361 7.375 12.9375 7.81667 11.9792 7.95ZM17.25 16V13C17.25 12.4 17.1222 11.8293 16.8667 11.288C16.6111 10.746 16.2757 10.2667 15.8604 9.85C16.675 10.15 17.4298 10.5373 18.125 11.012C18.8194 11.4873 19.1667 12.15 19.1667 13V16H17.25ZM23 7H17.25V5H23V7ZM7.66667 8C6.6125 8 5.71007 7.60833 4.95938 6.825C4.20868 6.04167 3.83333 5.1 3.83333 4C3.83333 2.9 4.20868 1.95833 4.95938 1.175C5.71007 0.391667 6.6125 0 7.66667 0C8.72083 0 9.62326 0.391667 10.374 1.175C11.1247 1.95833 11.5 2.9 11.5 4C11.5 5.1 11.1247 6.04167 10.374 6.825C9.62326 7.60833 8.72083 8 7.66667 8ZM0 16V13.2C0 12.6333 0.139917 12.1123 0.41975 11.637C0.698944 11.1623 1.07014 10.8 1.53333 10.55C2.52361 10.0333 3.52986 9.64567 4.55208 9.387C5.57431 9.129 6.6125 9 7.66667 9C8.72083 9 9.75903 9.129 10.7812 9.387C11.8035 9.64567 12.8097 10.0333 13.8 10.55C14.2632 10.8 14.6344 11.1623 14.9136 11.637C15.1934 12.1123 15.3333 12.6333 15.3333 13.2V16H0Z" fill="currentColor"/>
</svg>
