<svg width="18" height="13" viewBox="0 0 18 13" fill="none" xmlns="http://www.w3.org/2000/svg">
  <path d="M9.375 6.4605C9.7375 6.03828 10.0157 5.55668 10.2098 5.01571C10.4032 4.47473 10.5 3.91397 10.5 3.33341C10.5 2.75286 10.4032 2.1921 10.2098 1.65112C10.0157 1.11015 9.7375 0.628554 9.375 0.206332C10.125 0.311887 10.75 0.66154 11.25 1.25529C11.75 1.84904 12 2.54175 12 3.33341C12 4.12508 11.75 4.81779 11.25 5.41154C10.75 6.00529 10.125 6.35494 9.375 6.4605ZM13.5 12.8334V10.4584C13.5 9.98341 13.4 9.53164 13.2 9.10308C13 8.674 12.7375 8.29453 12.4125 7.96467C13.05 8.20217 13.6407 8.5088 14.1847 8.88458C14.7283 9.26089 15 9.7855 15 10.4584V12.8334H13.5ZM18 5.70842H13.5V4.12508H18V5.70842ZM6 6.50008C5.175 6.50008 4.46875 6.19001 3.88125 5.56987C3.29375 4.94973 3 4.20425 3 3.33341C3 2.46258 3.29375 1.7171 3.88125 1.09696C4.46875 0.476818 5.175 0.166748 6 0.166748C6.825 0.166748 7.53125 0.476818 8.11875 1.09696C8.70625 1.7171 9 2.46258 9 3.33341C9 4.20425 8.70625 4.94973 8.11875 5.56987C7.53125 6.19001 6.825 6.50008 6 6.50008ZM0 12.8334V10.6167C0 10.1681 0.1095 9.75568 0.3285 9.37937C0.547 9.0036 0.8375 8.71675 1.2 8.51883C1.975 8.1098 2.7625 7.8029 3.5625 7.59812C4.3625 7.39387 5.175 7.29175 6 7.29175C6.825 7.29175 7.6375 7.39387 8.4375 7.59812C9.2375 7.8029 10.025 8.1098 10.8 8.51883C11.1625 8.71675 11.453 9.0036 11.6715 9.37937C11.8905 9.75568 12 10.1681 12 10.6167V12.8334H0Z" fill="currentColor"/>
</svg>
