<svg width="22" height="22" viewBox="0 0 22 22" fill="none" xmlns="http://www.w3.org/2000/svg">
  <path d="M12.7187 20.1667H9.28123C9.05207 20.1667 8.85346 20.0903 8.6854 19.9375C8.51734 19.7848 8.41804 19.5938 8.38748 19.3646L8.11248 17.2334C7.91387 17.157 7.72687 17.0653 7.55148 16.9584C7.37548 16.8514 7.20346 16.7368 7.0354 16.6146L5.04165 17.4396C4.82776 17.516 4.61387 17.5237 4.39998 17.4625C4.18609 17.4014 4.01804 17.2716 3.89582 17.073L2.19998 14.1167C2.07776 13.9181 2.03957 13.7042 2.0854 13.475C2.13123 13.2459 2.24582 13.0625 2.42915 12.925L4.1479 11.6188C4.13262 11.5118 4.12498 11.4086 4.12498 11.309V10.6902C4.12498 10.5912 4.13262 10.4882 4.1479 10.3813L2.42915 9.07504C2.24582 8.93754 2.13123 8.75421 2.0854 8.52504C2.03957 8.29587 2.07776 8.08199 2.19998 7.88337L3.89582 4.92712C4.00276 4.71324 4.16684 4.5794 4.38807 4.52562C4.6099 4.47246 4.82776 4.48407 5.04165 4.56046L7.0354 5.38546C7.20346 5.26324 7.37915 5.14865 7.56248 5.04171C7.74582 4.93476 7.92915 4.8431 8.11248 4.76671L8.38748 2.63546C8.41804 2.40629 8.51734 2.21532 8.6854 2.06254C8.85346 1.90976 9.05207 1.83337 9.28123 1.83337H12.7187C12.9479 1.83337 13.1465 1.90976 13.3146 2.06254C13.4826 2.21532 13.5819 2.40629 13.6125 2.63546L13.8875 4.76671C14.0861 4.8431 14.2734 4.93476 14.4494 5.04171C14.6248 5.14865 14.7965 5.26324 14.9646 5.38546L16.9583 4.56046C17.1722 4.48407 17.3861 4.47643 17.6 4.53754C17.8139 4.59865 17.9819 4.72851 18.1042 4.92712L19.8 7.88337C19.9222 8.08199 19.9604 8.29587 19.9146 8.52504C19.8687 8.75421 19.7542 8.93754 19.5708 9.07504L17.8521 10.3813C17.8673 10.4882 17.875 10.5912 17.875 10.6902V11.309C17.875 11.4086 17.8597 11.5118 17.8292 11.6188L19.5479 12.925C19.7312 13.0625 19.8458 13.2459 19.8917 13.475C19.9375 13.7042 19.8993 13.9181 19.7771 14.1167L18.0812 17.05C17.959 17.2487 17.7873 17.3825 17.5661 17.4515C17.3442 17.52 17.1264 17.516 16.9125 17.4396L14.9646 16.6146C14.7965 16.7368 14.6208 16.8514 14.4375 16.9584C14.2542 17.0653 14.0708 17.157 13.8875 17.2334L13.6125 19.3646C13.5819 19.5938 13.4826 19.7848 13.3146 19.9375C13.1465 20.0903 12.9479 20.1667 12.7187 20.1667ZM11.0458 14.2084C11.9319 14.2084 12.6882 13.8952 13.3146 13.2688C13.941 12.6424 14.2542 11.8862 14.2542 11C14.2542 10.1139 13.941 9.35768 13.3146 8.73129C12.6882 8.1049 11.9319 7.79171 11.0458 7.79171C10.1444 7.79171 9.38421 8.1049 8.76515 8.73129C8.14671 9.35768 7.83748 10.1139 7.83748 11C7.83748 11.8862 8.14671 12.6424 8.76515 13.2688C9.38421 13.8952 10.1444 14.2084 11.0458 14.2084Z" fill="currentColor"/>
</svg>
