<svg width="49" height="48" viewBox="0 0 49 48" fill="none" xmlns="http://www.w3.org/2000/svg">
  <path d="M14.2917 38L24.5001 28L28.3384 31.76C27.2155 33.58 26.5417 35.72 26.5417 38H14.2917ZM20.4167 21C20.4167 19.34 19.0488 18 17.3542 18C15.6597 18 14.2917 19.34 14.2917 21C14.2917 22.66 15.6597 24 17.3542 24C19.0488 24 20.4167 22.66 20.4167 21ZM26.7255 40H12.2501V8H26.5417V18H36.7501V26.18C37.4238 26.08 38.0976 26 38.7917 26C39.4859 26 40.1597 26.08 40.8334 26.18V16L28.5834 4H12.2501C11.1671 4 10.1285 4.42143 9.36273 5.17157C8.59695 5.92172 8.16675 6.93913 8.16675 8V40C8.16675 42.22 9.98383 44 12.2501 44H28.1955C27.4809 42.78 26.9705 41.44 26.7255 40ZM36.7501 30V36H30.6251V40H36.7501V46H40.8334V40H46.9584V36H40.8334V30H36.7501Z" fill="currentColor"/>
</svg>
