<svg width="75" height="76" viewBox="0 0 75 76" fill="none" xmlns="http://www.w3.org/2000/svg">
  <path d="M12.125 61.0833L31.5 43.1667L38.785 49.9033C36.6537 53.1642 35.375 56.9983 35.375 61.0833H12.125ZM23.75 30.625C23.75 27.6508 21.1537 25.25 17.9375 25.25C14.7212 25.25 12.125 27.6508 12.125 30.625C12.125 33.5992 14.7212 36 17.9375 36C21.1537 36 23.75 33.5992 23.75 30.625ZM35.7237 64.6667H8.25V7.33334H35.375V25.25H54.75V39.9058C56.0287 39.7267 57.3075 39.5833 58.625 39.5833C59.9425 39.5833 61.2212 39.7267 62.5 39.9058V21.6667L39.25 0.166672H8.25C6.19457 0.166672 4.22333 0.921729 2.76992 2.26574C1.31652 3.60975 0.5 5.43262 0.5 7.33334V64.6667C0.5 68.6442 3.94875 71.8333 8.25 71.8333H38.5137C37.1575 69.6475 36.1887 67.2467 35.7237 64.6667ZM54.75 46.75V57.5H43.125V64.6667H54.75V75.4167H62.5V64.6667H74.125V57.5H62.5V46.75H54.75Z" fill="currentColor"/>
</svg>
